<?xml version="1.0" encoding="UTF-8"?>
<svg version="1.1" xmlns="http://www.w3.org/2000/svg" width="1024" height="1024">
<path d="M0 0 C2.31 0.99 4.62 1.98 7 3 C7.66 2.34 8.32 1.68 9 1 C9 1.99 9 2.98 9 4 C10.24523437 3.93039063 10.24523437 3.93039063 11.515625 3.859375 C74.42837795 2.01674207 143.04203636 32.80944071 188.75390625 74.9375 C190.71593864 76.73915757 192.71654749 78.46787843 194.75 80.1875 C205.1698191 89.32326058 214.42027239 99.23999371 222.72509766 110.31933594 C223.95003736 111.9341358 225.21455875 113.51867661 226.48046875 115.1015625 C232.27853903 122.38371754 237.28660487 129.97629347 242.15405273 137.9050293 C242.64075439 138.69562744 243.12745605 139.48622559 243.62890625 140.30078125 C244.06275635 141.01403564 244.49660645 141.72729004 244.94360352 142.4621582 C245.29221436 142.969646 245.6408252 143.47713379 246 144 C247.2236068 144.0745356 247.2236068 144.0745356 249 143 C249.06058594 141.73285156 249.12117187 140.46570313 249.18359375 139.16015625 C249.26808565 137.46093036 249.35272919 135.761712 249.4375 134.0625 C249.47681641 133.23169922 249.51613281 132.40089844 249.55664062 131.54492188 C249.75238365 127.67523283 249.99440566 123.84412187 250.484375 120 C251.01596617 115.5191643 251.20742162 111.03294483 251.39453125 106.52734375 C251.46407971 104.95246896 251.53374319 103.37759925 251.60351562 101.80273438 C251.71083537 99.36532359 251.81282542 96.92825813 251.89868164 94.48999023 C251.98470374 92.10557273 252.09395981 89.72311281 252.20703125 87.33984375 C252.22699661 86.62191147 252.24696198 85.90397919 252.26753235 85.16429138 C252.58078396 79.23506176 254.35436307 73.94961234 258.37532043 69.46665955 C263.26562991 65.09163802 268.38873256 63.48775281 274.91796875 63.6875 C280.18375105 64.47786132 284.43841054 67.03838723 287.9375 71 C289.72122728 73.59451241 290.44670721 75.01221892 291 78 C291.66 78.33 292.32 78.66 293 79 C289.99077033 207.72408046 289.99077033 207.72408046 269 230 C262.90798922 234.56900808 257.66431278 235.35048463 250.25976562 234.56542969 C244.75337452 233.61030672 239.69502887 231.70420375 234.5 229.6875 C232.40678505 228.89831896 230.31303569 228.11055391 228.21875 227.32421875 C227.1978125 226.93927246 226.176875 226.55432617 225.125 226.15771484 C221.91809252 224.96965584 218.70246311 223.82009179 215.46875 222.70703125 C214.51419922 222.37807861 213.55964844 222.04912598 212.57617188 221.71020508 C209.80268779 220.82282135 209.80268779 220.82282135 206 221 C206 220.34 206 219.68 206 219 C204.865625 218.896875 203.73125 218.79375 202.5625 218.6875 C199.48907136 218.30680137 196.76910228 217.66330554 193.85546875 216.62109375 C188.88372599 214.91671578 183.85334672 213.62009363 178.75 212.375 C177.87859375 212.1584375 177.0071875 211.941875 176.109375 211.71875 C171.25183509 210.51917459 166.39626546 209.45381178 161.47973633 208.52270508 C158.58640896 207.97285282 155.69984289 207.39291673 152.8125 206.8125 C151.82185547 206.62880859 150.83121094 206.44511719 149.81054688 206.25585938 C141.28911268 204.50686993 133.17196788 201.48848513 127.9375 194.1875 C124.81058669 188.33427438 124.2556267 182.74774476 126.0625 176.375 C128.26395585 170.65121479 131.71278871 166.72935488 136.5625 163.0625 C146.97009553 159.84560684 157.27048155 162.70513921 167.37164307 165.61862183 C171.10137169 166.693484 174.84595533 167.71404594 178.58984375 168.73828125 C179.32058105 168.93942032 180.05131836 169.14055939 180.80419922 169.34779358 C188.79615819 171.52806143 196.86687542 173.1237391 205.01269531 174.60498047 C208.37579563 175.27346896 211.68160587 176.13870894 215 177 C205.86568117 159.83520752 194.28832409 142.73927132 180.1640625 129.24609375 C179 128 179 128 179 126 C178.4225 125.773125 177.845 125.54625 177.25 125.3125 C174.40469122 123.65273655 173.06346666 121.57933333 171 119 C169.2188526 117.30926617 167.37024619 115.72067828 165.5 114.12890625 C163.6468631 112.55084436 161.8185465 110.95677375 160 109.33984375 C141.37427175 92.89416291 121.07644107 80.24397206 98.75 69.4375 C97.69031006 68.92437256 96.63062012 68.41124512 95.53881836 67.88256836 C90.44430696 65.46582109 85.53998574 63.14542948 80 62 C79.34 62.33 78.68 62.66 78 63 C78 62.01 78 61.02 78 60 C76.73929688 59.73058594 75.47859375 59.46117187 74.1796875 59.18359375 C69.74587255 58.19935954 65.37562157 57.03989076 60.99536133 55.8425293 C-0.63204351 39.09509726 -67.69596597 47.55681332 -123.3046875 78.953125 C-133.11965152 84.6400952 -142.21641975 90.8277524 -151 98 C-152.38638672 99.0828125 -152.38638672 99.0828125 -153.80078125 100.1875 C-157.56431215 103.13141751 -161.17131626 106.06704424 -164.5 109.5 C-165.325 110.325 -166.15 111.15 -167 112 C-167.66 112 -168.32 112 -169 112 C-169.495 113.485 -169.495 113.485 -170 115 C-171.41576641 116.17980534 -172.83502809 117.35572155 -174.2734375 118.5078125 C-177.54776543 121.33766152 -180.21831998 124.69744762 -183 128 C-183.72960937 128.83015625 -184.45921875 129.6603125 -185.2109375 130.515625 C-196.70619971 143.83376051 -206.31370676 158.7277054 -215 174 C-215.36013184 174.6192334 -215.72026367 175.2384668 -216.09130859 175.87646484 C-230.7412185 201.21842005 -239.56733225 229.98923368 -243 259 C-243.0942627 259.78084961 -243.18852539 260.56169922 -243.28564453 261.36621094 C-245.66617267 283.79172293 -245.28728419 307.86844871 -241 330 C-240.80664062 331.01497559 -240.61328125 332.02995117 -240.4140625 333.07568359 C-229.68475537 387.62460694 -199.93937681 438.52266934 -156 473 C-154.99066406 473.80308594 -153.98132813 474.60617187 -152.94140625 475.43359375 C-131.01828511 492.73864216 -106.54140738 506.17719818 -80 515 C-79.16952148 515.27779297 -78.33904297 515.55558594 -77.48339844 515.84179688 C-65.21194509 519.88002194 -52.7633536 522.97690954 -40 525 C-38.87698486 525.17805176 -37.75396973 525.35610352 -36.59692383 525.53955078 C-25.12827011 527.17012362 -13.75954159 527.39898074 -2.1875 527.375 C-0.70307404 527.37418427 -0.70307404 527.37418427 0.81134033 527.37335205 C16.85193121 527.3329231 32.28249702 526.46455456 48 523 C49.50095215 522.67056396 49.50095215 522.67056396 51.03222656 522.33447266 C91.06498202 513.24313812 126.79013455 494.47366459 158 468 C158.79921875 467.33226562 159.5984375 466.66453125 160.421875 465.9765625 C169.59422354 458.16172154 177.52298957 449.42457417 185 440 C185.65613281 439.21109375 186.31226563 438.4221875 186.98828125 437.609375 C203.93492766 417.09680099 216.51254782 392.91897986 225.32958984 367.89697266 C225.96209849 366.107245 226.61517713 364.32482536 227.26953125 362.54296875 C230.50208236 353.39946704 232.74701493 344.1140884 234.85742188 334.65454102 C236.62736174 326.8904452 238.27594221 321.02981627 244.5 315.6875 C245.2734375 315.01074219 246.046875 314.33398438 246.84375 313.63671875 C251.60682528 310.02126849 257.27977405 310.52536036 263 311 C266.43326642 312.34878324 268.94025301 313.96016867 272 316 C272 316.66 272 317.32 272 318 C272.66 318 273.32 318 274 318 C279.27182937 325.99277356 279.55735512 332.87403721 277.76879883 342.20556641 C277.55634521 343.21022949 277.3438916 344.21489258 277.125 345.25 C276.90158936 346.32556152 276.67817871 347.40112305 276.44799805 348.50927734 C265.74449646 397.69248431 242.30873873 440.93699589 209.26464844 478.55175781 C208.15513972 479.82233806 207.06427125 481.10914567 205.9765625 482.3984375 C202.60967335 486.37471835 199.0558363 489.80513267 195.078125 493.16796875 C192.88921027 495.09766989 190.89460231 497.14437759 188.875 499.25 C183.57601256 504.61283067 177.70880355 509.13436483 171.71826172 513.6875 C170.15604693 514.88080302 168.61024638 516.09551816 167.06640625 517.3125 C109.58213203 561.96047998 33.77817419 579.29227592 -37.78344727 570.4128418 C-53.89591955 568.17022259 -69.69192852 564.70133732 -85.22802734 559.87963867 C-89.62759319 558.53789896 -93.33867184 557.67566811 -98 558 C-98 557.34 -98 556.68 -98 556 C-98.56920166 555.7733667 -99.13840332 555.5467334 -99.72485352 555.31323242 C-102.33777574 554.2722561 -104.95014063 553.22988798 -107.5625 552.1875 C-108.90538086 551.65286133 -108.90538086 551.65286133 -110.27539062 551.10742188 C-123.10850273 545.98357858 -123.10850273 545.98357858 -128.125 543.375 C-130.87620686 541.89595466 -130.87620686 541.89595466 -133.625 541.5625 C-136 541 -136 541 -137.625 539.25390625 C-140.8448111 536.19826315 -144.46537977 534.42838916 -148.375 532.375 C-156.76207975 527.84831657 -164.39586575 522.72558335 -172 517 C-172.74378906 516.45730469 -173.48757813 515.91460938 -174.25390625 515.35546875 C-192.99152895 501.61454543 -210.71733595 485.37081789 -225 467 C-225.7528125 466.06414062 -226.505625 465.12828125 -227.28125 464.1640625 C-232.69135261 457.33117316 -237.64553875 450.23787681 -242.5 443 C-243.11190186 442.09137207 -243.72380371 441.18274414 -244.35424805 440.24658203 C-245.21530151 438.94889893 -245.21530151 438.94889893 -246.09375 437.625 C-246.86235352 436.46871094 -246.86235352 436.46871094 -247.64648438 435.2890625 C-249 433 -249 433 -249.99414062 430.2734375 C-250.32607422 429.52320313 -250.65800781 428.77296875 -251 428 C-251.99 427.67 -252.98 427.34 -254 427 C-254 426.01 -254 425.02 -254 424 C-255.41331977 421.27860767 -256.87566946 418.61075919 -258.375 415.9375 C-289.07888855 359.17965686 -296.35613462 286.45698338 -281 224 C-280.65243652 222.57905029 -280.65243652 222.57905029 -280.29785156 221.12939453 C-276.2216547 204.84296832 -270.66178007 189.39858421 -264 174 C-263.64212402 173.16307617 -263.28424805 172.32615234 -262.91552734 171.46386719 C-251.11040685 144.17818288 -234.10124074 119.55570384 -214.3203125 97.48339844 C-212.7002148 95.66318512 -211.13398508 93.79970982 -209.5625 91.9375 C-200.44869887 81.61151843 -190.57111145 72.52274189 -179.59472656 64.23193359 C-177.22459474 62.40099588 -174.96522513 60.4439799 -172.6875 58.5 C-157.25837281 45.83092196 -139.15500939 36.11174514 -121.02978516 27.91748047 C-120.25812012 27.56443848 -119.48645508 27.21139648 -118.69140625 26.84765625 C-118.00248291 26.53836182 -117.31355957 26.22906738 -116.60375977 25.91040039 C-114.81335546 25.09092892 -114.81335546 25.09092892 -114 23 C-112.00709178 22.62659951 -110.0052508 22.30013386 -108 22 C-106.08021156 21.41232327 -104.17372602 20.77981227 -102.28125 20.109375 C-101.19497314 19.73184082 -100.10869629 19.35430664 -98.98950195 18.96533203 C-97.83796631 18.56427246 -96.68643066 18.16321289 -95.5 17.75 C-79.23454822 12.20802256 -62.82329039 8.54449586 -45.921875 5.578125 C-43.07842111 5.1496697 -43.07842111 5.1496697 -41 4 C-39.63024527 3.85997501 -38.25467289 3.77443826 -36.87890625 3.71875 C-35.6117981 3.66352173 -35.6117981 3.66352173 -34.3190918 3.60717773 C-33.4094165 3.57180908 -32.49974121 3.53644043 -31.5625 3.5 C-29.6640419 3.41844687 -27.76560478 3.33640418 -25.8671875 3.25390625 C-24.89749023 3.21281738 -23.92779297 3.17172852 -22.92871094 3.12939453 C-18.34679701 2.92695919 -13.76724657 2.68355757 -9.1875 2.4375 C-8.36386963 2.39367187 -7.54023926 2.34984375 -6.69165039 2.3046875 C-4.79440597 2.20364238 -2.89719834 2.10190665 -1 2 C-0.67 1.34 -0.34 0.68 0 0 Z " fill="#FAFAFA" transform="translate(514,225)"/>
<path d="M0 0 C5.09913522 1.45014046 9.10631771 3.73779007 13.5625 6.5 C77.56555143 44.95517258 155.9756671 53.52952494 228 37 C238.61538909 34.34783985 248.94543343 30.89034908 259.06811523 26.74023438 C263.68459662 24.89486554 263.68459662 24.89486554 267 26 C242.56816066 36.4805005 217.35568203 42.67424267 191 46 C190.1848291 46.103125 189.3696582 46.20625 188.52978516 46.3125 C179.22092972 47.32022454 169.85221981 47.24374221 160.5 47.25 C159.13840256 47.25101212 159.13840256 47.25101212 157.7492981 47.25204468 C129.01313956 47.21824747 101.27290849 43.41467869 73.77197266 34.87963867 C69.37240681 33.53789896 65.66132816 32.67566811 61 33 C61 32.34 61 31.68 61 31 C60.43079834 30.7733667 59.86159668 30.5467334 59.27514648 30.31323242 C56.66222426 29.2722561 54.04985937 28.22988798 51.4375 27.1875 C50.54224609 26.83107422 49.64699219 26.47464844 48.72460938 26.10742188 C35.89149727 20.98357858 35.89149727 20.98357858 30.875 18.375 C28.12379314 16.89595466 28.12379314 16.89595466 25.375 16.5625 C23 16 23 16 21.42578125 14.28515625 C17.97241861 11.03198854 13.98581579 9.08459532 9.8125 6.875 C8.1704694 6.00247251 6.53099805 5.12510602 4.89453125 4.2421875 C4.17112549 3.8591748 3.44771973 3.47616211 2.70239258 3.08154297 C1 2 1 2 0 0 Z " fill="#A6A8A9" transform="translate(355,750)"/>
<path d="M0 0 C2.31 0.99 4.62 1.98 7 3 C7.66 2.34 8.32 1.68 9 1 C9 1.99 9 2.98 9 4 C9.83015625 3.95359375 10.6603125 3.9071875 11.515625 3.859375 C48.42406817 2.77837457 86.92639836 14.29839114 120 30 C115.59672957 31.46775681 112.64742329 29.32325551 108.625 27.5 C50.5318429 2.19777226 -17.7658403 -2.25159146 -78.64135742 15.15722656 C-79.54732666 15.41084961 -80.4532959 15.66447266 -81.38671875 15.92578125 C-82.18295654 16.15692627 -82.97919434 16.38807129 -83.79956055 16.6262207 C-86.19992724 17.03396079 -87.70815612 16.75937147 -90 16 C-75.24673323 11.44246218 -60.48704077 8.14890385 -45.28051758 5.47729492 C-42.98255091 5.09731817 -42.98255091 5.09731817 -41 4 C-39.63024527 3.85997501 -38.25467289 3.77443826 -36.87890625 3.71875 C-36.03416748 3.68193115 -35.18942871 3.6451123 -34.3190918 3.60717773 C-33.4094165 3.57180908 -32.49974121 3.53644043 -31.5625 3.5 C-29.6640419 3.41844687 -27.76560478 3.33640418 -25.8671875 3.25390625 C-24.89749023 3.21281738 -23.92779297 3.17172852 -22.92871094 3.12939453 C-18.34679701 2.92695919 -13.76724657 2.68355757 -9.1875 2.4375 C-8.36386963 2.39367187 -7.54023926 2.34984375 -6.69165039 2.3046875 C-4.79440597 2.20364238 -2.89719834 2.10190665 -1 2 C-0.67 1.34 -0.34 0.68 0 0 Z " fill="#AEAFB0" transform="translate(514,225)"/>
<path d="M0 0 C6.73030202 0.74866892 13.26000029 2.02046059 19.875 3.45117188 C35.20285429 6.6404327 50.20528456 7.39856201 65.8125 7.375 C67.28795288 7.37717529 67.28795288 7.37717529 68.79321289 7.37939453 C84.06174156 7.37691406 98.67500861 6.43661241 113.66796875 3.3671875 C116.14710371 2.97683794 118.494418 2.93769423 121 3 C97.48997984 18.67334677 44.41690104 10.92693127 18.4296875 5.7578125 C3.99160807 2.66107205 3.99160807 2.66107205 0 0 Z " fill="#ABADAF" transform="translate(446,745)"/>
<path d="M0 0 C0 0.33 0 0.66 0 1 C-1.03068604 1.06993164 -2.06137207 1.13986328 -3.12329102 1.21191406 C-28.19646659 2.93820424 -52.37903452 5.22311027 -76.64428711 12.1574707 C-77.54928955 12.41101318 -78.45429199 12.66455566 -79.38671875 12.92578125 C-80.18295654 13.15692627 -80.97919434 13.38807129 -81.79956055 13.6262207 C-84.19992724 14.03396079 -85.70815612 13.75937147 -88 13 C-73.24673323 8.44246218 -58.48704077 5.14890385 -43.28051758 2.47729492 C-40.98255091 2.09731817 -40.98255091 2.09731817 -39 1 C-37.61888235 0.84828632 -36.23153948 0.75099813 -34.84375 0.68359375 C-33.99385498 0.64161865 -33.14395996 0.59964355 -32.26831055 0.55639648 C-31.35476807 0.51716064 -30.44122559 0.4779248 -29.5 0.4375 C-28.10358276 0.37381226 -28.10358276 0.37381226 -26.67895508 0.30883789 C-17.78350941 -0.06617581 -8.90133338 -0.09781685 0 0 Z " fill="#A9ABAC" transform="translate(512,228)"/>
<path d="M0 0 C0.79527351 0.28412498 0.79527351 0.28412498 1.60661316 0.57398987 C7.4375491 2.59515476 13.26794325 4.06183194 19.30078125 5.33984375 C21.26759248 5.76751213 23.23438889 6.19524863 25.20117188 6.62304688 C28.25468812 7.28095708 31.30865928 7.93667776 34.36303711 8.59057617 C56.30421723 13.30174218 56.30421723 13.30174218 66 17 C62.25593749 18.24802084 60.55700877 17.58766742 56.7578125 16.6015625 C55.52675781 16.28703125 54.29570313 15.9725 53.02734375 15.6484375 C51.72648091 15.30760293 50.42570037 14.96645409 49.125 14.625 C46.58655659 13.96893349 44.0471158 13.31679877 41.5078125 12.6640625 C39.81615967 12.22247803 39.81615967 12.22247803 38.09033203 11.77197266 C35.4001053 11.0999473 32.72298301 10.51885942 30 10 C26.20435949 9.2475841 22.41403219 8.4725073 18.625 7.6875 C17.60921875 7.48705078 16.5934375 7.28660156 15.546875 7.08007812 C9.63769051 5.84068424 5.04830631 4.33472628 0 1 C0 0.67 0 0.34 0 0 Z " fill="#B1B2B3" transform="translate(648,424)"/>
<path d="M0 0 C3.465 1.485 3.465 1.485 7 3 C7.66 2.34 8.32 1.68 9 1 C9 1.99 9 2.98 9 4 C10.33224609 3.94779297 10.33224609 3.94779297 11.69140625 3.89453125 C23.98016522 3.63412364 35.85943927 5.19997995 48 7 C47.67 7.66 47.34 8.32 47 9 C46.2972998 8.91959473 45.59459961 8.83918945 44.87060547 8.75634766 C29.26164506 6.97746922 13.65243872 5.3452551 -2 4 C-1.34 2.68 -0.68 1.36 0 0 Z " fill="#B3B4B5" transform="translate(514,225)"/>
<path d="M0 0 C0 0.66 0 1.32 0 2 C-6.93 2 -13.86 2 -21 2 C-21 1.67 -21 1.34 -21 1 C-18.81457668 0.63323686 -16.62651594 0.282173 -14.4375 -0.0625 C-13.21933594 -0.25972656 -12.00117188 -0.45695313 -10.74609375 -0.66015625 C-6.94539951 -1.00495333 -3.7409767 -0.68849378 0 0 Z " fill="#CCCDCE" transform="translate(520,753)"/>
<path d="M0 0 C4.62 1.65 9.24 3.3 14 5 C10.8035914 6.06546953 8.34252724 6.07427838 5 6 C5 5.34 5 4.68 5 4 C3.02 3.34 1.04 2.68 -1 2 C-0.67 1.34 -0.34 0.68 0 0 Z " fill="#B4B6B7" transform="translate(411,777)"/>
<path d="M0 0 C3.465 1.485 3.465 1.485 7 3 C7.66 2.34 8.32 1.68 9 1 C9 1.99 9 2.98 9 4 C9.66 4.33 10.32 4.66 11 5 C6.71 4.67 2.42 4.34 -2 4 C-1.34 2.68 -0.68 1.36 0 0 Z " fill="#C5C6C6" transform="translate(514,225)"/>
<path d="M0 0 C0.99 0.66 1.98 1.32 3 2 C1.41727399 3.58272601 -0.38034003 3.34735747 -2.5625 3.5625 C-3.80193359 3.68818359 -3.80193359 3.68818359 -5.06640625 3.81640625 C-6.02353516 3.90728516 -6.02353516 3.90728516 -7 4 C-7.33 3.34 -7.66 2.68 -8 2 C-6.865625 1.855625 -5.73125 1.71125 -4.5625 1.5625 C-1.19222799 1.38828522 -1.19222799 1.38828522 0 0 Z " fill="#B9BBBB" transform="translate(472,229)"/>
<path d="M0 0 C2.31 0 4.62 0 7 0 C7 0.33 7 0.66 7 1 C4.69 1 2.38 1 0 1 C0 0.67 0 0.34 0 0 Z " fill="#E9EBEB" transform="translate(505,226)"/>
<path d="M0 0 C0.99 0.33 1.98 0.66 3 1 C2.67 1.66 2.34 2.32 2 3 C1.34 2.01 0.68 1.02 0 0 Z " fill="#EBECEC" transform="translate(363,757)"/>
<path d="M0 0 C1.65 0 3.3 0 5 0 C5 0.33 5 0.66 5 1 C3.35 1 1.7 1 0 1 C0 0.67 0 0.34 0 0 Z " fill="#F1F1F1" transform="translate(544,749)"/>
<path d="M0 0 C0.33 0 0.66 0 1 0 C1 1.65 1 3.3 1 5 C0.67 5 0.34 5 0 5 C0 3.35 0 1.7 0 0 Z " fill="#EEEFEF" transform="translate(224,507)"/>
<path d="M0 0 C0.66 0.66 1.32 1.32 2 2 C0.68 1.67 -0.64 1.34 -2 1 C-1.34 0.67 -0.68 0.34 0 0 Z " fill="#F8F7F7" transform="translate(726,399)"/>
<path d="M0 0 C1.32 0.33 2.64 0.66 4 1 C3.01 1.495 3.01 1.495 2 2 C1.34 1.34 0.68 0.68 0 0 Z " fill="#F0F0F0" transform="translate(586,285)"/>
<path d="M0 0 C1.65 0 3.3 0 5 0 C5 0.33 5 0.66 5 1 C3.35 1 1.7 1 0 1 C0 0.67 0 0.34 0 0 Z " fill="#ECECEC" transform="translate(528,227)"/>
<path d="M0 0 C4 1 4 1 4 1 Z " fill="#EAEAE9" transform="translate(523,798)"/>
<path d="M0 0 C4 1 4 1 4 1 Z " fill="#EDECEC" transform="translate(537,797)"/>
<path d="M0 0 C1.485 0.99 1.485 0.99 3 2 C2.01 2 1.02 2 0 2 C0 1.34 0 0.68 0 0 Z " fill="#F3F3F3" transform="translate(360,698)"/>
<path d="M0 0 C0.99 1.485 0.99 1.485 2 3 C1.34 3 0.68 3 0 3 C0 2.01 0 1.02 0 0 Z " fill="#EDECED" transform="translate(264,658)"/>
<path d="M0 0 C0.33 0.99 0.66 1.98 1 3 C0.34 2.67 -0.32 2.34 -1 2 C-0.67 1.34 -0.34 0.68 0 0 Z " fill="#EBEBEB" transform="translate(245,620)"/>
<path d="M0 0 C0.33 0.99 0.66 1.98 1 3 C0.34 2.67 -0.32 2.34 -1 2 C-0.67 1.34 -0.34 0.68 0 0 Z " fill="#F3F2F2" transform="translate(765,316)"/>
<path d="M0 0 C1.485 0.99 1.485 0.99 3 2 C2.01 2 1.02 2 0 2 C0 1.34 0 0.68 0 0 Z " fill="#F2F1F1" transform="translate(554,276)"/>
<path d="M0 0 C4 1 4 1 4 1 Z " fill="#EBEBEB" transform="translate(479,227)"/>
<path d="M0 0 C3 1 3 1 3 1 Z " fill="#E7E8E7" transform="translate(508,798)"/>
<path d="M0 0 C3 1 3 1 3 1 Z " fill="#E7E7E7" transform="translate(499,798)"/>
<path d="M0 0 C0.33 0.66 0.66 1.32 1 2 C0.34 1.67 -0.32 1.34 -1 1 C-0.67 0.67 -0.34 0.34 0 0 Z " fill="#EDEDEC" transform="translate(482,796)"/>
<path d="" fill="#E9E8E9" transform="translate(0,0)"/>
<path d="M0 0 C0.33 0.66 0.66 1.32 1 2 C0.34 1.67 -0.32 1.34 -1 1 C-0.67 0.67 -0.34 0.34 0 0 Z " fill="#ECECEB" transform="translate(629,773)"/>
<path d="M0 0 C0.66 0 1.32 0 2 0 C1.67 0.66 1.34 1.32 1 2 C0.67 1.34 0.34 0.68 0 0 Z " fill="#F1F2F2" transform="translate(433,738)"/>
<path d="M0 0 C0.99 0.495 0.99 0.495 2 1 C1.01 1.495 1.01 1.495 0 2 C0 1.34 0 0.68 0 0 Z " fill="#EBECEC" transform="translate(756,662)"/>
<path d="" fill="#EDEDED" transform="translate(0,0)"/>
<path d="" fill="#EFF0F1" transform="translate(0,0)"/>
<path d="" fill="#F0F1F0" transform="translate(0,0)"/>
<path d="M0 0 C3 1 3 1 3 1 Z " fill="#EBEDED" transform="translate(691,438)"/>
<path d="M0 0 C3 1 3 1 3 1 Z " fill="#EEEEEE" transform="translate(688,437)"/>
<path d="M0 0 C0.99 0.495 0.99 0.495 2 1 C1.01 1.495 1.01 1.495 0 2 C0 1.34 0 0.68 0 0 Z " fill="#F1F2F1" transform="translate(676,434)"/>
<path d="M0 0 C0.99 0.495 0.99 0.495 2 1 C1.01 1.495 1.01 1.495 0 2 C0 1.34 0 0.68 0 0 Z " fill="#F0EFF0" transform="translate(240,416)"/>
<path d="M0 0 C0.66 0.66 1.32 1.32 2 2 C1.34 2 0.68 2 0 2 C0 1.34 0 0.68 0 0 Z " fill="#F3F2F2" transform="translate(292,413)"/>
<path d="M0 0 C3 1 3 1 3 1 Z " fill="#F6F6F8" transform="translate(694,393)"/>
<path d="" fill="#F6F7F5" transform="translate(0,0)"/>
<path d="M0 0 C0.33 0.66 0.66 1.32 1 2 C0.34 1.67 -0.32 1.34 -1 1 C-0.67 0.67 -0.34 0.34 0 0 Z " fill="#F0EFF1" transform="translate(298,321)"/>
<path d="M0 0 C0.99 0.495 0.99 0.495 2 1 C1.01 1.495 1.01 1.495 0 2 C0 1.34 0 0.68 0 0 Z " fill="#F2F2F3" transform="translate(584,284)"/>
<path d="M0 0 C3 1 3 1 3 1 Z " fill="#F2F1F2" transform="translate(433,285)"/>
<path d="M0 0 C3 1 3 1 3 1 Z " fill="#F1F1F3" transform="translate(469,276)"/>
<path d="M0 0 C3 1 3 1 3 1 Z " fill="#F1F1F1" transform="translate(542,275)"/>
<path d="M0 0 C3 1 3 1 3 1 Z " fill="#EFEFEF" transform="translate(442,234)"/>
<path d="M0 0 C0.33 0.66 0.66 1.32 1 2 C0.34 1.67 -0.32 1.34 -1 1 C-0.67 0.67 -0.34 0.34 0 0 Z " fill="#EFEFEF" transform="translate(540,227)"/>
<path d="M0 0 C2 1 2 1 2 1 Z " fill="#ECECEE" transform="translate(515,798)"/>
<path d="M0 0 C2 1 2 1 2 1 Z " fill="#EAEAEB" transform="translate(489,797)"/>
<path d="M0 0 C2 1 2 1 2 1 Z " fill="#F1F1F1" transform="translate(548,796)"/>
<path d="M0 0 C2 1 2 1 2 1 Z " fill="#ECEDEC" transform="translate(477,796)"/>
<path d="M0 0 C2 1 2 1 2 1 Z " fill="#E9E8E8" transform="translate(605,783)"/>
<path d="M0 0 C2 1 2 1 2 1 Z " fill="#ECEBEB" transform="translate(411,780)"/>
<path d="M0 0 C2 1 2 1 2 1 Z " fill="#ECECEE" transform="translate(394,773)"/>
<path d="M0 0 C2 1 2 1 2 1 Z " fill="#F4F3F4" transform="translate(428,737)"/>
<path d="" fill="#F2F4F4" transform="translate(0,0)"/>
<path d="" fill="#F6F6F5" transform="translate(0,0)"/>
<path d="M0 0 C2 1 2 1 2 1 Z " fill="#EBECEC" transform="translate(256,648)"/>
<path d="" fill="#EEEFEF" transform="translate(0,0)"/>
<path d="M0 0 C2 1 2 1 2 1 Z " fill="#F2F3F3" transform="translate(300,628)"/>
<path d="" fill="#F2F2F2" transform="translate(0,0)"/>
<path d="" fill="#F0F1F1" transform="translate(0,0)"/>
<path d="" fill="#F1F1F1" transform="translate(0,0)"/>
<path d="" fill="#F3F3F3" transform="translate(0,0)"/>
<path d="" fill="#F1F2F3" transform="translate(0,0)"/>
<path d="" fill="#EDEEEF" transform="translate(0,0)"/>
<path d="" fill="#F2F2F4" transform="translate(0,0)"/>
<path d="" fill="#F1F1F1" transform="translate(0,0)"/>
<path d="" fill="#EFEFEF" transform="translate(0,0)"/>
<path d="M0 0 C2 1 2 1 2 1 Z " fill="#F2F2F2" transform="translate(764,460)"/>
<path d="M0 0 C2 1 2 1 2 1 Z " fill="#EBEBEB" transform="translate(789,446)"/>
<path d="M0 0 C2 1 2 1 2 1 Z " fill="#F6F7F6" transform="translate(708,396)"/>
<path d="" fill="#EEEFEF" transform="translate(0,0)"/>
<path d="M0 0 C2 1 2 1 2 1 Z " fill="#F3F4F5" transform="translate(676,388)"/>
<path d="M0 0 C2 1 2 1 2 1 Z " fill="#F1F0F1" transform="translate(658,385)"/>
<path d="" fill="#EBEBEC" transform="translate(0,0)"/>
<path d="" fill="#F8F8F8" transform="translate(0,0)"/>
<path d="" fill="#EDEEEF" transform="translate(0,0)"/>
<path d="M0 0 C2 1 2 1 2 1 Z " fill="#F9FAF8" transform="translate(748,348)"/>
<path d="M0 0 C2 1 2 1 2 1 Z " fill="#EFEEED" transform="translate(282,339)"/>
<path d="M0 0 C2 1 2 1 2 1 Z " fill="#F4F5F5" transform="translate(659,326)"/>
<path d="" fill="#F3F5F5" transform="translate(0,0)"/>
<path d="" fill="#F3F3F2" transform="translate(0,0)"/>
<path d="M0 0 C2 1 2 1 2 1 Z " fill="#F2F2F2" transform="translate(607,293)"/>
<path d="M0 0 C2 1 2 1 2 1 Z " fill="#F1F2F2" transform="translate(602,291)"/>
<path d="M0 0 C2 1 2 1 2 1 Z " fill="#F4F4F2" transform="translate(329,291)"/>
<path d="M0 0 C2 1 2 1 2 1 Z " fill="#F2F1F0" transform="translate(580,283)"/>
<path d="M0 0 C2 1 2 1 2 1 Z " fill="#F1F1F0" transform="translate(446,282)"/>
<path d="M0 0 C2 1 2 1 2 1 Z " fill="#F2F1F1" transform="translate(341,281)"/>
<path d="M0 0 C2 1 2 1 2 1 Z " fill="#EFEEEF" transform="translate(460,278)"/>
<path d="M0 0 C2 1 2 1 2 1 Z " fill="#F2F3F2" transform="translate(465,277)"/>
<path d="M0 0 C2 1 2 1 2 1 Z " fill="#F1F2F1" transform="translate(478,275)"/>
<path d="M0 0 C2 1 2 1 2 1 Z " fill="#F2F3F2" transform="translate(486,274)"/>
<path d="M0 0 C2 1 2 1 2 1 Z " fill="#EFEFEE" transform="translate(394,250)"/>
<path d="M0 0 C2 1 2 1 2 1 Z " fill="#F1F1F1" transform="translate(397,249)"/>
<path d="M0 0 C2 1 2 1 2 1 Z " fill="#ECECEC" transform="translate(421,240)"/>
<path d="M0 0 C2 1 2 1 2 1 Z " fill="#EBEBEA" transform="translate(433,236)"/>
<path d="M0 0 C2 1 2 1 2 1 Z " fill="#F0F1F1" transform="translate(548,229)"/>
<path d="M0 0 C2 1 2 1 2 1 Z " fill="#EDECED" transform="translate(465,229)"/>
<path d="M0 0 C2 1 2 1 2 1 Z " fill="#ECECEC" transform="translate(476,228)"/>
<path d="M0 0 C2 1 2 1 2 1 Z " fill="#EFF0F0" transform="translate(525,227)"/>
<path d="M0 0 C2 1 2 1 2 1 Z " fill="#F0F2F0" transform="translate(492,227)"/>
<path d="M0 0 C2 1 2 1 2 1 Z " fill="#EBECED" transform="translate(486,227)"/>
<path d="M0 0 C2 1 2 1 2 1 Z " fill="#ECECEC" transform="translate(500,226)"/>
<path d="" fill="#4A4B4B" transform="translate(0,0)"/>
<path d="" fill="#555656" transform="translate(0,0)"/>
<path d="" fill="#4D4C4E" transform="translate(0,0)"/>
<path d="" fill="#5B5A5C" transform="translate(0,0)"/>
<path d="" fill="#4B4A4B" transform="translate(0,0)"/>
<path d="" fill="#545557" transform="translate(0,0)"/>
<path d="" fill="#3B3D3D" transform="translate(0,0)"/>
<path d="" fill="#3F3F3E" transform="translate(0,0)"/>
<path d="" fill="#464546" transform="translate(0,0)"/>
<path d="" fill="#5E5E5D" transform="translate(0,0)"/>
<path d="" fill="#606061" transform="translate(0,0)"/>
<path d="" fill="#474848" transform="translate(0,0)"/>
<path d="" fill="#515250" transform="translate(0,0)"/>
<path d="" fill="#3F4241" transform="translate(0,0)"/>
<path d="" fill="#464747" transform="translate(0,0)"/>
<path d="" fill="#535454" transform="translate(0,0)"/>
<path d="" fill="#414141" transform="translate(0,0)"/>
<path d="" fill="#444646" transform="translate(0,0)"/>
<path d="" fill="#403F40" transform="translate(0,0)"/>
<path d="" fill="#474847" transform="translate(0,0)"/>
<path d="" fill="#555558" transform="translate(0,0)"/>
<path d="" fill="#61615F" transform="translate(0,0)"/>
<path d="" fill="#676969" transform="translate(0,0)"/>
<path d="" fill="#404140" transform="translate(0,0)"/>
<path d="" fill="#404242" transform="translate(0,0)"/>
<path d="" fill="#424144" transform="translate(0,0)"/>
<path d="" fill="#484849" transform="translate(0,0)"/>
<path d="" fill="#484A48" transform="translate(0,0)"/>
<path d="" fill="#58595A" transform="translate(0,0)"/>
<path d="" fill="#686866" transform="translate(0,0)"/>
<path d="" fill="#5E5F5F" transform="translate(0,0)"/>
<path d="" fill="#404141" transform="translate(0,0)"/>
<path d="" fill="#444444" transform="translate(0,0)"/>
<path d="" fill="#444645" transform="translate(0,0)"/>
<path d="" fill="#4A494A" transform="translate(0,0)"/>
<path d="" fill="#565456" transform="translate(0,0)"/>
<path d="" fill="#656566" transform="translate(0,0)"/>
<path d="" fill="#4E504E" transform="translate(0,0)"/>
<path d="" fill="#4E4E4F" transform="translate(0,0)"/>
<path d="" fill="#4A494A" transform="translate(0,0)"/>
<path d="" fill="#4F5052" transform="translate(0,0)"/>
<path d="" fill="#474847" transform="translate(0,0)"/>
<path d="" fill="#434445" transform="translate(0,0)"/>
<path d="" fill="#595B59" transform="translate(0,0)"/>
<path d="" fill="#525052" transform="translate(0,0)"/>
<path d="" fill="#434343" transform="translate(0,0)"/>
<path d="" fill="#949493" transform="translate(0,0)"/>
<path d="" fill="#505151" transform="translate(0,0)"/>
<path d="" fill="#8A8C8A" transform="translate(0,0)"/>
<path d="" fill="#4A4A4C" transform="translate(0,0)"/>
<path d="" fill="#4D4E4E" transform="translate(0,0)"/>
<path d="" fill="#4A4B4A" transform="translate(0,0)"/>
<path d="" fill="#E7E9E7" transform="translate(0,0)"/>
<path d="" fill="#E8E9E8" transform="translate(0,0)"/>
<path d="" fill="#E9E9E8" transform="translate(0,0)"/>
<path d="" fill="#E8E8E8" transform="translate(0,0)"/>
<path d="" fill="#E7E8E9" transform="translate(0,0)"/>
<path d="" fill="#E8E7E8" transform="translate(0,0)"/>
<path d="" fill="#E7E9E8" transform="translate(0,0)"/>
<path d="" fill="#E8E9E9" transform="translate(0,0)"/>
<path d="" fill="#F1F1F0" transform="translate(0,0)"/>
<path d="" fill="#EEEEEE" transform="translate(0,0)"/>
<path d="" fill="#EEEDEE" transform="translate(0,0)"/>
<path d="" fill="#EBEDED" transform="translate(0,0)"/>
<path d="" fill="#ECEDEE" transform="translate(0,0)"/>
<path d="" fill="#EBECED" transform="translate(0,0)"/>
<path d="" fill="#ECEBE9" transform="translate(0,0)"/>
<path d="" fill="#E8E8E8" transform="translate(0,0)"/>
<path d="" fill="#EAEAEA" transform="translate(0,0)"/>
<path d="" fill="#EDEEEF" transform="translate(0,0)"/>
<path d="" fill="#EDEDEB" transform="translate(0,0)"/>
<path d="" fill="#EBEBED" transform="translate(0,0)"/>
<path d="" fill="#EDEEEC" transform="translate(0,0)"/>
<path d="" fill="#E9EAEB" transform="translate(0,0)"/>
<path d="" fill="#E7E8E7" transform="translate(0,0)"/>
<path d="" fill="#EDECED" transform="translate(0,0)"/>
<path d="" fill="#ECEDEE" transform="translate(0,0)"/>
<path d="" fill="#EAEBEC" transform="translate(0,0)"/>
<path d="" fill="#EBECEC" transform="translate(0,0)"/>
<path d="" fill="#EBEEED" transform="translate(0,0)"/>
<path d="" fill="#EAEBE9" transform="translate(0,0)"/>
<path d="" fill="#EDEDEE" transform="translate(0,0)"/>
<path d="" fill="#ECEDEB" transform="translate(0,0)"/>
<path d="" fill="#EAEAE8" transform="translate(0,0)"/>
<path d="" fill="#ECEAEB" transform="translate(0,0)"/>
<path d="" fill="#EDEEEB" transform="translate(0,0)"/>
<path d="" fill="#F1F2F0" transform="translate(0,0)"/>
<path d="" fill="#E7E8E8" transform="translate(0,0)"/>
<path d="" fill="#E8EAE9" transform="translate(0,0)"/>
<path d="" fill="#EAECEC" transform="translate(0,0)"/>
<path d="" fill="#E5E7E6" transform="translate(0,0)"/>
<path d="" fill="#626363" transform="translate(0,0)"/>
<path d="" fill="#EAEBEA" transform="translate(0,0)"/>
<path d="" fill="#EBEBEC" transform="translate(0,0)"/>
<path d="" fill="#E8E9EB" transform="translate(0,0)"/>
<path d="" fill="#E8EAE9" transform="translate(0,0)"/>
<path d="" fill="#F0F2F1" transform="translate(0,0)"/>
<path d="" fill="#EFEDEF" transform="translate(0,0)"/>
<path d="" fill="#EAEBEB" transform="translate(0,0)"/>
<path d="" fill="#EFEFF0" transform="translate(0,0)"/>
<path d="" fill="#EEEEED" transform="translate(0,0)"/>
<path d="" fill="#F1F2F1" transform="translate(0,0)"/>
<path d="" fill="#F3F2F1" transform="translate(0,0)"/>
<path d="" fill="#EFF1F0" transform="translate(0,0)"/>
<path d="" fill="#F3F4F6" transform="translate(0,0)"/>
<path d="" fill="#EBEBE9" transform="translate(0,0)"/>
<path d="" fill="#EEEEEE" transform="translate(0,0)"/>
<path d="" fill="#E9EBE9" transform="translate(0,0)"/>
<path d="" fill="#EEEEED" transform="translate(0,0)"/>
<path d="" fill="#F1F2F2" transform="translate(0,0)"/>
<path d="" fill="#EEEDEE" transform="translate(0,0)"/>
<path d="" fill="#F0F1F0" transform="translate(0,0)"/>
<path d="" fill="#EBEAEC" transform="translate(0,0)"/>
<path d="" fill="#F1F1F2" transform="translate(0,0)"/>
<path d="" fill="#F1F2F2" transform="translate(0,0)"/>
<path d="" fill="#EFEEEE" transform="translate(0,0)"/>
<path d="" fill="#F2F2F1" transform="translate(0,0)"/>
<path d="" fill="#F1F0EF" transform="translate(0,0)"/>
<path d="" fill="#EAEAEA" transform="translate(0,0)"/>
<path d="" fill="#F5F5F4" transform="translate(0,0)"/>
<path d="" fill="#F3F4F0" transform="translate(0,0)"/>
<path d="" fill="#F3F3F3" transform="translate(0,0)"/>
<path d="" fill="#F5F5F3" transform="translate(0,0)"/>
<path d="" fill="#67686A" transform="translate(0,0)"/>
<path d="" fill="#F1F3F2" transform="translate(0,0)"/>
<path d="" fill="#EDECED" transform="translate(0,0)"/>
<path d="" fill="#F5F3F4" transform="translate(0,0)"/>
<path d="" fill="#F3F2F3" transform="translate(0,0)"/>
<path d="" fill="#F4F7F4" transform="translate(0,0)"/>
<path d="" fill="#F7F8F7" transform="translate(0,0)"/>
<path d="" fill="#F2F2F2" transform="translate(0,0)"/>
<path d="" fill="#F3F4F5" transform="translate(0,0)"/>
<path d="" fill="#EAEBEE" transform="translate(0,0)"/>
<path d="" fill="#F4F3F4" transform="translate(0,0)"/>
<path d="" fill="#F5F5F4" transform="translate(0,0)"/>
<path d="" fill="#EFEFF0" transform="translate(0,0)"/>
<path d="" fill="#F3F0F1" transform="translate(0,0)"/>
<path d="" fill="#F4F2F4" transform="translate(0,0)"/>
<path d="" fill="#F1F3F3" transform="translate(0,0)"/>
<path d="" fill="#EFEEEE" transform="translate(0,0)"/>
<path d="" fill="#F7F6F7" transform="translate(0,0)"/>
<path d="" fill="#F1F0F0" transform="translate(0,0)"/>
<path d="" fill="#F4F4F4" transform="translate(0,0)"/>
<path d="" fill="#EDEEEE" transform="translate(0,0)"/>
<path d="" fill="#EEEEEE" transform="translate(0,0)"/>
<path d="" fill="#F5F7F6" transform="translate(0,0)"/>
<path d="" fill="#EDEDED" transform="translate(0,0)"/>
<path d="" fill="#F1F0F1" transform="translate(0,0)"/>
<path d="" fill="#F4F4F2" transform="translate(0,0)"/>
<path d="" fill="#585A5A" transform="translate(0,0)"/>
<path d="" fill="#F1F1F2" transform="translate(0,0)"/>
<path d="" fill="#F1F3F3" transform="translate(0,0)"/>
<path d="" fill="#EBEBEB" transform="translate(0,0)"/>
<path d="" fill="#ECEDED" transform="translate(0,0)"/>
<path d="" fill="#EDEBED" transform="translate(0,0)"/>
<path d="" fill="#F1F1EF" transform="translate(0,0)"/>
<path d="" fill="#EFEDEF" transform="translate(0,0)"/>
<path d="" fill="#EEEDED" transform="translate(0,0)"/>
<path d="" fill="#EDEBEB" transform="translate(0,0)"/>
<path d="" fill="#E9EBE9" transform="translate(0,0)"/>
<path d="" fill="#E9EAE9" transform="translate(0,0)"/>
<path d="" fill="#E6E8E8" transform="translate(0,0)"/>
<path d="" fill="#EEF2F0" transform="translate(0,0)"/>
<path d="" fill="#ECECED" transform="translate(0,0)"/>
<path d="" fill="#F3F3F4" transform="translate(0,0)"/>
<path d="" fill="#EDEDEC" transform="translate(0,0)"/>
<path d="" fill="#EAEAEB" transform="translate(0,0)"/>
<path d="" fill="#F5F6F5" transform="translate(0,0)"/>
<path d="" fill="#EBECEC" transform="translate(0,0)"/>
<path d="" fill="#F2F6F6" transform="translate(0,0)"/>
<path d="" fill="#F4F2F2" transform="translate(0,0)"/>
<path d="" fill="#EFEEEF" transform="translate(0,0)"/>
<path d="" fill="#F0F1EF" transform="translate(0,0)"/>
<path d="" fill="#ECEBEC" transform="translate(0,0)"/>
<path d="" fill="#EEEFEE" transform="translate(0,0)"/>
<path d="" fill="#EBE9E9" transform="translate(0,0)"/>
<path d="" fill="#ECEAEC" transform="translate(0,0)"/>
<path d="" fill="#EFF0EE" transform="translate(0,0)"/>
<path d="" fill="#5F6062" transform="translate(0,0)"/>
<path d="" fill="#F6F6F7" transform="translate(0,0)"/>
<path d="" fill="#F2F1EF" transform="translate(0,0)"/>
<path d="" fill="#EBECEA" transform="translate(0,0)"/>
<path d="" fill="#F1F4F2" transform="translate(0,0)"/>
<path d="" fill="#F2F2F2" transform="translate(0,0)"/>
<path d="" fill="#828282" transform="translate(0,0)"/>
<path d="" fill="#EEEDEC" transform="translate(0,0)"/>
<path d="" fill="#F6F5F6" transform="translate(0,0)"/>
<path d="" fill="#EDEDEF" transform="translate(0,0)"/>
<path d="" fill="#5F5F60" transform="translate(0,0)"/>
<path d="" fill="#626262" transform="translate(0,0)"/>
<path d="" fill="#EDEEEE" transform="translate(0,0)"/>
<path d="" fill="#F0F0F0" transform="translate(0,0)"/>
<path d="" fill="#F0F0F0" transform="translate(0,0)"/>
<path d="" fill="#EEEDED" transform="translate(0,0)"/>
<path d="" fill="#F4F2F2" transform="translate(0,0)"/>
<path d="" fill="#F4F4F3" transform="translate(0,0)"/>
<path d="" fill="#F2F2F2" transform="translate(0,0)"/>
<path d="" fill="#F4F3F2" transform="translate(0,0)"/>
<path d="" fill="#F1F3F1" transform="translate(0,0)"/>
<path d="" fill="#F1F3F1" transform="translate(0,0)"/>
<path d="" fill="#F2F4F2" transform="translate(0,0)"/>
<path d="" fill="#636162" transform="translate(0,0)"/>
<path d="" fill="#EDEDED" transform="translate(0,0)"/>
<path d="" fill="#F0F2F0" transform="translate(0,0)"/>
<path d="" fill="#676867" transform="translate(0,0)"/>
<path d="" fill="#EAEBEB" transform="translate(0,0)"/>
<path d="" fill="#EBEBEB" transform="translate(0,0)"/>
<path d="" fill="#F2F2F3" transform="translate(0,0)"/>
<path d="" fill="#EEF0EE" transform="translate(0,0)"/>
<path d="" fill="#EEF0EF" transform="translate(0,0)"/>
<path d="" fill="#F1F1F1" transform="translate(0,0)"/>
<path d="" fill="#E5E6E7" transform="translate(0,0)"/>
<path d="" fill="#818281" transform="translate(0,0)"/>
<path d="" fill="#E4E5E8" transform="translate(0,0)"/>
<path d="" fill="#EDEDED" transform="translate(0,0)"/>
<path d="" fill="#F2F4F4" transform="translate(0,0)"/>
<path d="" fill="#EFEEEE" transform="translate(0,0)"/>
<path d="" fill="#E6E7E9" transform="translate(0,0)"/>
<path d="" fill="#EDEFED" transform="translate(0,0)"/>
<path d="" fill="#E7E8E8" transform="translate(0,0)"/>
<path d="" fill="#EBEBEC" transform="translate(0,0)"/>
<path d="" fill="#EBEEEC" transform="translate(0,0)"/>
<path d="" fill="#676767" transform="translate(0,0)"/>
<path d="" fill="#7C7C7C" transform="translate(0,0)"/>
<path d="" fill="#7D7E7E" transform="translate(0,0)"/>
<path d="" fill="#EBECEB" transform="translate(0,0)"/>
<path d="" fill="#EBEEEE" transform="translate(0,0)"/>
<path d="" fill="#EFEEF0" transform="translate(0,0)"/>
<path d="" fill="#ECEDEC" transform="translate(0,0)"/>
<path d="" fill="#ECECEC" transform="translate(0,0)"/>
<path d="" fill="#EEF0EF" transform="translate(0,0)"/>
<path d="" fill="#EDEDEE" transform="translate(0,0)"/>
<path d="" fill="#A2A3A4" transform="translate(0,0)"/>
<path d="" fill="#EAEBEC" transform="translate(0,0)"/>
<path d="" fill="#ECECEC" transform="translate(0,0)"/>
<path d="" fill="#ECEAEA" transform="translate(0,0)"/>
<path d="" fill="#E9EBEB" transform="translate(0,0)"/>
<path d="" fill="#EFEFF0" transform="translate(0,0)"/>
<path d="" fill="#EFECEC" transform="translate(0,0)"/>
<path d="" fill="#E9E9E9" transform="translate(0,0)"/>
<path d="" fill="#EEEFEF" transform="translate(0,0)"/>
<path d="" fill="#F3F2F1" transform="translate(0,0)"/>
<path d="" fill="#F2F3F4" transform="translate(0,0)"/>
<path d="" fill="#EEEEF1" transform="translate(0,0)"/>
<path d="" fill="#EFEFF1" transform="translate(0,0)"/>
<path d="" fill="#79797A" transform="translate(0,0)"/>
<path d="" fill="#EFF0F0" transform="translate(0,0)"/>
<path d="" fill="#EBEDED" transform="translate(0,0)"/>
<path d="" fill="#F2F3F1" transform="translate(0,0)"/>
<path d="" fill="#E8EAEA" transform="translate(0,0)"/>
<path d="" fill="#EDEEED" transform="translate(0,0)"/>
<path d="" fill="#EFF0F0" transform="translate(0,0)"/>
<path d="" fill="#EEECED" transform="translate(0,0)"/>
<path d="" fill="#EDEDED" transform="translate(0,0)"/>
<path d="" fill="#E8E9EA" transform="translate(0,0)"/>
<path d="" fill="#E0E0E1" transform="translate(0,0)"/>
<path d="" fill="#F5F3F4" transform="translate(0,0)"/>
<path d="" fill="#EBECED" transform="translate(0,0)"/>
<path d="" fill="#E5E5E5" transform="translate(0,0)"/>
<path d="" fill="#ECEEEE" transform="translate(0,0)"/>
<path d="" fill="#E1E1E2" transform="translate(0,0)"/>
<path d="" fill="#676869" transform="translate(0,0)"/>
<path d="" fill="#E0DFE2" transform="translate(0,0)"/>
<path d="" fill="#F1F2F3" transform="translate(0,0)"/>
<path d="" fill="#EFEEF0" transform="translate(0,0)"/>
<path d="" fill="#E0E1E1" transform="translate(0,0)"/>
<path d="" fill="#F2F1F1" transform="translate(0,0)"/>
<path d="" fill="#F1F3F1" transform="translate(0,0)"/>
<path d="" fill="#F1F1F0" transform="translate(0,0)"/>
<path d="" fill="#EFEFF0" transform="translate(0,0)"/>
<path d="" fill="#F1F0F1" transform="translate(0,0)"/>
<path d="" fill="#F6F4F5" transform="translate(0,0)"/>
<path d="" fill="#F9F8F8" transform="translate(0,0)"/>
<path d="" fill="#E8E9E9" transform="translate(0,0)"/>
<path d="" fill="#F8F9F8" transform="translate(0,0)"/>
<path d="" fill="#EEF0EE" transform="translate(0,0)"/>
<path d="" fill="#F6F5F5" transform="translate(0,0)"/>
<path d="" fill="#F8F8FA" transform="translate(0,0)"/>
<path d="" fill="#F8F8F8" transform="translate(0,0)"/>
<path d="" fill="#F0F0F0" transform="translate(0,0)"/>
<path d="" fill="#F4F6F5" transform="translate(0,0)"/>
<path d="" fill="#F8F7F7" transform="translate(0,0)"/>
<path d="" fill="#F3F4F2" transform="translate(0,0)"/>
<path d="" fill="#EFF0F1" transform="translate(0,0)"/>
<path d="" fill="#EFEFEE" transform="translate(0,0)"/>
<path d="" fill="#EFEEEE" transform="translate(0,0)"/>
<path d="" fill="#EFEFEE" transform="translate(0,0)"/>
<path d="" fill="#F0EFF1" transform="translate(0,0)"/>
<path d="" fill="#EAE9E9" transform="translate(0,0)"/>
<path d="" fill="#FAF9F8" transform="translate(0,0)"/>
<path d="" fill="#FAFAF9" transform="translate(0,0)"/>
<path d="" fill="#FAF9F8" transform="translate(0,0)"/>
<path d="" fill="#F0F0F0" transform="translate(0,0)"/>
<path d="" fill="#F0F0F0" transform="translate(0,0)"/>
<path d="" fill="#F6F5F5" transform="translate(0,0)"/>
<path d="" fill="#F9F8F8" transform="translate(0,0)"/>
<path d="" fill="#EEEDEE" transform="translate(0,0)"/>
<path d="" fill="#F6F8F6" transform="translate(0,0)"/>
<path d="" fill="#F6F7F6" transform="translate(0,0)"/>
<path d="" fill="#F1F0F0" transform="translate(0,0)"/>
<path d="" fill="#EEEEEE" transform="translate(0,0)"/>
<path d="" fill="#E9EBEC" transform="translate(0,0)"/>
<path d="" fill="#F9F7F7" transform="translate(0,0)"/>
<path d="" fill="#F2F4F4" transform="translate(0,0)"/>
<path d="" fill="#F7F6F8" transform="translate(0,0)"/>
<path d="" fill="#ECEEEE" transform="translate(0,0)"/>
<path d="" fill="#EDEEEC" transform="translate(0,0)"/>
<path d="" fill="#F5F6F6" transform="translate(0,0)"/>
<path d="" fill="#F2F1F2" transform="translate(0,0)"/>
<path d="" fill="#F0F1F2" transform="translate(0,0)"/>
<path d="" fill="#676969" transform="translate(0,0)"/>
<path d="" fill="#9A9B9C" transform="translate(0,0)"/>
<path d="" fill="#F1F0EF" transform="translate(0,0)"/>
<path d="" fill="#F7F4F4" transform="translate(0,0)"/>
<path d="" fill="#F7F9F8" transform="translate(0,0)"/>
<path d="" fill="#EEF0F1" transform="translate(0,0)"/>
<path d="" fill="#F7F4F6" transform="translate(0,0)"/>
<path d="" fill="#F7F8F7" transform="translate(0,0)"/>
<path d="" fill="#F6F7F7" transform="translate(0,0)"/>
<path d="" fill="#F8F8F7" transform="translate(0,0)"/>
<path d="" fill="#F5F4F5" transform="translate(0,0)"/>
<path d="" fill="#F8F9F8" transform="translate(0,0)"/>
<path d="" fill="#F0EFEF" transform="translate(0,0)"/>
<path d="" fill="#F3F4F5" transform="translate(0,0)"/>
<path d="" fill="#F5F5F3" transform="translate(0,0)"/>
<path d="" fill="#F5F5F5" transform="translate(0,0)"/>
<path d="" fill="#F3F3F4" transform="translate(0,0)"/>
<path d="" fill="#F6F8F7" transform="translate(0,0)"/>
<path d="" fill="#6B6B6A" transform="translate(0,0)"/>
<path d="" fill="#F4F3F3" transform="translate(0,0)"/>
<path d="" fill="#F2F3F1" transform="translate(0,0)"/>
<path d="" fill="#F7F6F6" transform="translate(0,0)"/>
<path d="" fill="#F5F6F5" transform="translate(0,0)"/>
<path d="" fill="#F4F3F3" transform="translate(0,0)"/>
<path d="" fill="#F5F4F4" transform="translate(0,0)"/>
<path d="" fill="#F5F5F5" transform="translate(0,0)"/>
<path d="" fill="#F4F3F4" transform="translate(0,0)"/>
<path d="" fill="#F3F4F2" transform="translate(0,0)"/>
<path d="" fill="#F1F1F1" transform="translate(0,0)"/>
<path d="" fill="#F3F6F3" transform="translate(0,0)"/>
<path d="" fill="#EFF3F5" transform="translate(0,0)"/>
<path d="" fill="#F4F3F5" transform="translate(0,0)"/>
<path d="" fill="#F2F2F2" transform="translate(0,0)"/>
<path d="" fill="#686A68" transform="translate(0,0)"/>
<path d="" fill="#F3F5F4" transform="translate(0,0)"/>
<path d="" fill="#F5F6F5" transform="translate(0,0)"/>
<path d="" fill="#EEEDEF" transform="translate(0,0)"/>
<path d="" fill="#F4F3F4" transform="translate(0,0)"/>
<path d="" fill="#F2F1F2" transform="translate(0,0)"/>
<path d="" fill="#EFEFF0" transform="translate(0,0)"/>
<path d="" fill="#F3F3F3" transform="translate(0,0)"/>
<path d="" fill="#F2F1EF" transform="translate(0,0)"/>
<path d="" fill="#F6F5F6" transform="translate(0,0)"/>
<path d="" fill="#F2F2F0" transform="translate(0,0)"/>
<path d="" fill="#EFEFF1" transform="translate(0,0)"/>
<path d="" fill="#DFE1E1" transform="translate(0,0)"/>
<path d="" fill="#F5F7F6" transform="translate(0,0)"/>
<path d="" fill="#F0F1F1" transform="translate(0,0)"/>
<path d="" fill="#F2F2F0" transform="translate(0,0)"/>
<path d="" fill="#EFF0F0" transform="translate(0,0)"/>
<path d="" fill="#F2F2F5" transform="translate(0,0)"/>
<path d="" fill="#F2F1F2" transform="translate(0,0)"/>
<path d="" fill="#F3F4F2" transform="translate(0,0)"/>
<path d="" fill="#F1F2F2" transform="translate(0,0)"/>
<path d="" fill="#F2F2F1" transform="translate(0,0)"/>
<path d="" fill="#E1E2E1" transform="translate(0,0)"/>
<path d="" fill="#F2F5F1" transform="translate(0,0)"/>
<path d="" fill="#F4F4F3" transform="translate(0,0)"/>
<path d="" fill="#EFF0EF" transform="translate(0,0)"/>
<path d="" fill="#F2F1F1" transform="translate(0,0)"/>
<path d="" fill="#E0DFE1" transform="translate(0,0)"/>
<path d="" fill="#F3F4F3" transform="translate(0,0)"/>
<path d="" fill="#F1F2F1" transform="translate(0,0)"/>
<path d="" fill="#F0F0F0" transform="translate(0,0)"/>
<path d="" fill="#F1F2F0" transform="translate(0,0)"/>
<path d="" fill="#F2F4F3" transform="translate(0,0)"/>
<path d="" fill="#F2F5F4" transform="translate(0,0)"/>
<path d="" fill="#F2F1F1" transform="translate(0,0)"/>
<path d="" fill="#F1F1F0" transform="translate(0,0)"/>
<path d="" fill="#626264" transform="translate(0,0)"/>
<path d="" fill="#F5F5F5" transform="translate(0,0)"/>
<path d="" fill="#EEEFEE" transform="translate(0,0)"/>
<path d="" fill="#EFEFEF" transform="translate(0,0)"/>
<path d="" fill="#F0F0F1" transform="translate(0,0)"/>
<path d="" fill="#F1F1F1" transform="translate(0,0)"/>
<path d="" fill="#F5F4F5" transform="translate(0,0)"/>
<path d="" fill="#F1F1F2" transform="translate(0,0)"/>
<path d="" fill="#F4F2F4" transform="translate(0,0)"/>
<path d="" fill="#F1F2F2" transform="translate(0,0)"/>
<path d="" fill="#F0F0F0" transform="translate(0,0)"/>
<path d="" fill="#EFEFF0" transform="translate(0,0)"/>
<path d="" fill="#EFEFEF" transform="translate(0,0)"/>
<path d="" fill="#ECEEEC" transform="translate(0,0)"/>
<path d="" fill="#EEEEEE" transform="translate(0,0)"/>
<path d="" fill="#EEEEEE" transform="translate(0,0)"/>
<path d="" fill="#EEEDEB" transform="translate(0,0)"/>
<path d="" fill="#F1F2F1" transform="translate(0,0)"/>
<path d="" fill="#EFEFF0" transform="translate(0,0)"/>
<path d="" fill="#EBEBEA" transform="translate(0,0)"/>
<path d="" fill="#EEF0F0" transform="translate(0,0)"/>
<path d="" fill="#EFF0F0" transform="translate(0,0)"/>
<path d="" fill="#F0F1F2" transform="translate(0,0)"/>
<path d="" fill="#EEEEEE" transform="translate(0,0)"/>
<path d="" fill="#676867" transform="translate(0,0)"/>
<path d="" fill="#EDECEB" transform="translate(0,0)"/>
<path d="" fill="#F0EEEF" transform="translate(0,0)"/>
<path d="" fill="#EDECEC" transform="translate(0,0)"/>
<path d="" fill="#ECECEC" transform="translate(0,0)"/>
<path d="" fill="#EFF1EF" transform="translate(0,0)"/>
<path d="" fill="#ECECEE" transform="translate(0,0)"/>
<path d="" fill="#E5E7E6" transform="translate(0,0)"/>
<path d="" fill="#E9EAE9" transform="translate(0,0)"/>
<path d="" fill="#ECEBEC" transform="translate(0,0)"/>
<path d="" fill="#ECECEE" transform="translate(0,0)"/>
<path d="" fill="#EBEBEA" transform="translate(0,0)"/>
<path d="" fill="#EAE9E8" transform="translate(0,0)"/>
<path d="" fill="#EDEEEE" transform="translate(0,0)"/>
<path d="" fill="#EBEBEA" transform="translate(0,0)"/>
<path d="" fill="#F3F3F2" transform="translate(0,0)"/>
<path d="" fill="#EBEBEA" transform="translate(0,0)"/>
<path d="" fill="#EAE8E9" transform="translate(0,0)"/>
<path d="" fill="#EBEDEB" transform="translate(0,0)"/>
<path d="" fill="#EDEFEF" transform="translate(0,0)"/>
<path d="" fill="#EEEFF0" transform="translate(0,0)"/>
<path d="" fill="#ECEDEC" transform="translate(0,0)"/>
<path d="" fill="#F1F2F2" transform="translate(0,0)"/>
<path d="" fill="#EDEFEE" transform="translate(0,0)"/>
<path d="" fill="#EFF0F0" transform="translate(0,0)"/>
<path d="" fill="#EDEFEF" transform="translate(0,0)"/>
<path d="" fill="#EEEEED" transform="translate(0,0)"/>
<path d="" fill="#EDEFED" transform="translate(0,0)"/>
<path d="" fill="#EDEEED" transform="translate(0,0)"/>
<path d="" fill="#EEEBEC" transform="translate(0,0)"/>
<path d="" fill="#ECEBEA" transform="translate(0,0)"/>
<path d="" fill="#ECECED" transform="translate(0,0)"/>
<path d="" fill="#F0F0F1" transform="translate(0,0)"/>
<path d="" fill="#EDEFEE" transform="translate(0,0)"/>
<path d="" fill="#E9E9E8" transform="translate(0,0)"/>
<path d="" fill="#EBEBEC" transform="translate(0,0)"/>
<path d="" fill="#EBECED" transform="translate(0,0)"/>
<path d="" fill="#ECEBEB" transform="translate(0,0)"/>
<path d="" fill="#EBEBED" transform="translate(0,0)"/>
<path d="" fill="#EAEAEB" transform="translate(0,0)"/>
<path d="" fill="#707071" transform="translate(0,0)"/>
<path d="" fill="#555757" transform="translate(0,0)"/>
<path d="" fill="#4F5052" transform="translate(0,0)"/>
<path d="" fill="#5E5D5D" transform="translate(0,0)"/>
<path d="" fill="#7F807E" transform="translate(0,0)"/>
<path d="" fill="#525254" transform="translate(0,0)"/>
<path d="" fill="#666768" transform="translate(0,0)"/>
<path d="" fill="#515352" transform="translate(0,0)"/>
<path d="" fill="#4D4C50" transform="translate(0,0)"/>
<path d="" fill="#434544" transform="translate(0,0)"/>
<path d="" fill="#414243" transform="translate(0,0)"/>
<path d="" fill="#3E3F3F" transform="translate(0,0)"/>
<path d="" fill="#3F4041" transform="translate(0,0)"/>
<path d="" fill="#6B6B6C" transform="translate(0,0)"/>
<path d="" fill="#3F4040" transform="translate(0,0)"/>
<path d="" fill="#464646" transform="translate(0,0)"/>
<path d="" fill="#484847" transform="translate(0,0)"/>
<path d="" fill="#4F4E4F" transform="translate(0,0)"/>
<path d="" fill="#585A5B" transform="translate(0,0)"/>
<path d="" fill="#615F60" transform="translate(0,0)"/>
<path d="" fill="#676567" transform="translate(0,0)"/>
<path d="" fill="#5A5A5B" transform="translate(0,0)"/>
<path d="" fill="#403F3F" transform="translate(0,0)"/>
<path d="" fill="#4E514F" transform="translate(0,0)"/>
<path d="" fill="#5D5D5D" transform="translate(0,0)"/>
<path d="" fill="#606161" transform="translate(0,0)"/>
<path d="" fill="#424143" transform="translate(0,0)"/>
<path d="" fill="#565857" transform="translate(0,0)"/>
<path d="" fill="#505052" transform="translate(0,0)"/>
<path d="" fill="#525253" transform="translate(0,0)"/>
<path d="" fill="#454548" transform="translate(0,0)"/>
<path d="" fill="#5E5D5D" transform="translate(0,0)"/>
<path d="" fill="#3D3F3F" transform="translate(0,0)"/>
<path d="" fill="#444646" transform="translate(0,0)"/>
<path d="" fill="#505051" transform="translate(0,0)"/>
<path d="" fill="#5F5E5F" transform="translate(0,0)"/>
<path d="" fill="#3F3F3F" transform="translate(0,0)"/>
<path d="" fill="#3F4040" transform="translate(0,0)"/>
<path d="" fill="#5A5B5C" transform="translate(0,0)"/>
<path d="" fill="#5C5B5C" transform="translate(0,0)"/>
<path d="" fill="#565659" transform="translate(0,0)"/>
<path d="" fill="#484747" transform="translate(0,0)"/>
<path d="" fill="#4A4A4A" transform="translate(0,0)"/>
<path d="" fill="#4E4F4E" transform="translate(0,0)"/>
<path d="" fill="#545454" transform="translate(0,0)"/>
<path d="" fill="#555655" transform="translate(0,0)"/>
<path d="" fill="#5B5A5B" transform="translate(0,0)"/>
<path d="" fill="#505050" transform="translate(0,0)"/>
<path d="" fill="#4D4E4E" transform="translate(0,0)"/>
<path d="" fill="#464747" transform="translate(0,0)"/>
<path d="" fill="#3D3D3E" transform="translate(0,0)"/>
<path d="" fill="#414140" transform="translate(0,0)"/>
<path d="" fill="#525253" transform="translate(0,0)"/>
<path d="" fill="#555656" transform="translate(0,0)"/>
<path d="" fill="#5B5B5B" transform="translate(0,0)"/>
<path d="" fill="#505152" transform="translate(0,0)"/>
</svg>
